<svg xmlns="http://www.w3.org/2000/svg" xmlns:xlink="http://www.w3.org/1999/xlink" zoomAndPan="magnify" preserveAspectRatio="xMidYMid meet" version="1.2" viewBox="1.18 17.18 147.65 103.36"><defs><clipPath id="7fbba6f228"><path d="M 1.175781 17.175781 L 148.824219 17.175781 L 148.824219 120.535156 L 1.175781 120.535156 Z M 1.175781 17.175781 "/></clipPath></defs><g id="f9e58b8918"><g clip-rule="nonzero" clip-path="url(#7fbba6f228)"><path style=" stroke:none;fill-rule:nonzero;fill:#000000;fill-opacity:1;" d="M 145.738281 33.316406 C 144.035156 26.957031 139.039062 21.960938 132.683594 20.261719 C 121.175781 17.175781 75 17.175781 75 17.175781 C 75 17.175781 28.828125 17.175781 17.316406 20.261719 C 10.960938 21.960938 5.964844 26.957031 4.261719 33.316406 C 1.175781 44.824219 1.175781 68.855469 1.175781 68.855469 C 1.175781 68.855469 1.175781 92.882812 4.261719 104.394531 C 5.964844 110.75 10.960938 115.746094 17.316406 117.445312 C 28.828125 120.535156 75 120.535156 75 120.535156 C 75 120.535156 121.175781 120.535156 132.683594 117.445312 C 139.039062 115.746094 144.035156 110.75 145.738281 104.394531 C 148.824219 92.882812 148.824219 68.855469 148.824219 68.855469 C 148.824219 68.855469 148.8125 44.824219 145.738281 33.316406 Z M 145.738281 33.316406 "/></g><path style=" stroke:none;fill-rule:nonzero;fill:#ffffff;fill-opacity:1;" d="M 60.222656 91 L 98.578125 68.855469 L 60.222656 46.710938 Z M 60.222656 91 "/></g></svg>