<?xml version="1.0" encoding="UTF-8"?>
<svg id="Layer_1" data-name="Layer 1" xmlns="http://www.w3.org/2000/svg" viewBox="0 0 160 115.04">
  <g>
    <path d="M85,47.76c.41-2.99,1.62-9.3,2.33-12.03,1.7-6.46,4.05-11.78,7.04-15.97,3.15-4.34,6.87-7.62,11.18-9.85,4.31-2.22,8.96-3.33,13.97-3.33,4.38,0,8.28.99,11.68,2.98,3.4,1.99,6.34,4.74,8.82,8.25,2.22,3.1,4.15,6.88,5.8,11.35,1.65,4.47,2.89,8.61,3.71,12.43h6.35l-.7-39.2h-6.2l-3.17,5.27c-3.97-2.43-8.15-4.31-12.54-5.66-4.39-1.34-9.29-2.01-14.7-2.01-7.28,0-14.11,1.4-20.51,4.19-6.4,2.79-11.94,6.74-16.64,11.86-2.07,2.25-5.76,5.09-7.44,7.72,3.2,7.02,7.62,17.07,11,24Z"/>
    <path d="M70.45,47.79c.28-2.07-1.1-4.28-2.3-6.13-.06.27-.13.54-.19.81.46,1.78.95,3.55,1.43,5.32.44.75.81,1.55,1.14,2.37-.15-.75-.19-1.56-.07-2.37Z"/>
    <path d="M154.19,81.8c-1.24,3.41-2.84,6.56-4.8,9.45-1.96,2.89-4.23,5.47-6.81,7.75-5.06,4.25-8.67,5.06-9.13,5.23-3.51,1.32-7.35,1.98-11.53,1.98-5.57,0-10.62-1.24-15.13-3.72-4.51-2.48-8.41-5.36-11.46-9.93-2.64-3.97-6.11-9.98-7.89-15.84-.76-2.49-1.34-5.09-1.77-7.79-.26.07-.53.12-.82.13-.63.14-1.25.12-1.88-.06-.08,0-.16-.01-.24-.01-1.36,0-2.56-.57-3.54-1.46-.98-.9-1.41-2.24-1.46-3.54-.03-.69.12-1.33.43-1.93.2-.62.55-1.16,1.03-1.61.45-.49.99-.83,1.61-1.03.34-.18.69-.29,1.05-.36-1.07-2.07-2.12-4.16-3.16-6.24-1.31,1.1-3.27,1.57-4.77,1.14-1.36-.39-2.3-1.21-2.87-2.25,2.21,7.04,1.46,15.98,3.95,22.98.38,1.07.47,2.05.36,2.94,1.03,3.27,2.76,8.13,4.96,12.3,3.89,3.71,8.52,6.34,11.62,11.09.7,1.07,1,2.15,1.02,3.19,4.45,2.77,8.63,6.03,12.55,9.57,3.47.8,9.97,1.19,13.61,1.28,10.13.26,15.89-2.38,23.22-7.08,7.32-4.69,13.21-12.46,17.65-23.36l-5.81-2.79Z"/>
  </g>
  <rect x="119.66" y="112.4" width="0" height="1.31"/>
  <path d="M120.72,112.4s-5.24-2.63-.52,0"/>
  <path d="M75.43,40.26l21.64,57.65c.77,2.01,1.65,3.64,2.63,4.88.98,1.24,2.35,2.45,4.11,3.64,1.19.72,2.74,1.33,4.65,1.82,1.91.49,10.71.11,12,.16l1.59,6.6-54.48-.45v-5.5c4.03-.26,7.37-.77,10.03-1.55,2.66-.77,3.99-1.73,3.99-2.87,0-.46-.05-1.03-.15-1.7s-.26-1.27-.46-1.78l-9.1-24.63h-38.59c-1.45,3.62-2.62,6.77-3.53,9.45-.91,2.69-1.72,5.16-2.44,7.44-.67,2.22-1.14,4.03-1.4,5.42s-.39,2.53-.39,3.41c0,2.07,1.63,3.67,4.88,4.8s6.92,1.81,11,2.01v5.5H0v-5.5c1.34-.1,3.02-.4,5.04-.89s3.67-1.15,4.96-1.98c2.07-1.39,3.67-2.85,4.8-4.38,1.14-1.52,2.25-3.63,3.33-6.31,5.53-13.79,11.62-29.28,18.28-46.48,6.66-17.2,12.6-32.51,17.82-45.94h6.2l10.37,26.83M69.03,69.64l-16.65-42.66-16.41,42.66h33.06Z"/>
</svg>